<svg xmlns="http://www.w3.org/2000/svg" width="130.579" height="32.414" viewBox="0 0 130.579 32.414">
  <g id="Group_3578" data-name="Group 3578" transform="translate(-110.921 -5553.318)">
    <path id="Path_20813" data-name="Path 20813" d="M71.733,40.943A6.866,6.866,0,0,1,75,35.182a7.034,7.034,0,0,0-5.54-2.994c-2.33-.245-4.591,1.394-5.778,1.394-1.211,0-3.039-1.371-5.009-1.33a7.376,7.376,0,0,0-6.208,3.785c-2.685,4.646-.682,11.474,1.889,15.23,1.287,1.841,2.79,3.893,4.758,3.821,1.925-.078,2.644-1.226,4.967-1.226,2.3,0,2.977,1.225,4.984,1.18,2.066-.032,3.367-1.848,4.609-3.7a15.185,15.185,0,0,0,2.108-4.291A6.642,6.642,0,0,1,71.733,40.943ZM67.942,29.718a6.757,6.757,0,0,0,1.547-4.843,6.885,6.885,0,0,0-4.452,2.3,6.43,6.43,0,0,0-1.588,4.664A5.687,5.687,0,0,0,67.942,29.718Z" transform="translate(59.725 5528.443)" fill="#040345"/>
    <g id="Group_3479" data-name="Group 3479" transform="translate(154.459 5554.254)">
      <path id="Path_1448" data-name="Path 1448" d="M182.077,53.451H179.6l-1.358-4.266h-4.721l-1.294,4.266h-2.414l4.678-14.524h2.889Zm-4.247-6.056L176.6,43.6q-.195-.581-.732-2.736h-.044q-.216.927-.69,2.736l-1.207,3.793Zm16.254.691a5.929,5.929,0,0,1-1.452,4.223,4.258,4.258,0,0,1-3.229,1.38,3.233,3.233,0,0,1-2.991-1.486v5.5h-2.327V46.42q0-1.678-.086-3.442h2.047l.13,1.66h.044a4.141,4.141,0,0,1,6.628-.411A5.789,5.789,0,0,1,194.084,48.086Zm-2.371.085a4.314,4.314,0,0,0-.69-2.522A2.384,2.384,0,0,0,189,44.615a2.42,2.42,0,0,0-1.562.571,2.647,2.647,0,0,0-.916,1.5,3.036,3.036,0,0,0-.108.708V49.14a2.8,2.8,0,0,0,.7,1.93,2.327,2.327,0,0,0,1.821.787,2.386,2.386,0,0,0,2.047-1.013A4.459,4.459,0,0,0,191.713,48.171Zm14.421-.085a5.929,5.929,0,0,1-1.452,4.223,4.26,4.26,0,0,1-3.231,1.38A3.233,3.233,0,0,1,198.46,52.2v5.5h-2.327V46.42q0-1.678-.086-3.442h2.047l.13,1.66h.044a4.142,4.142,0,0,1,6.629-.411A5.8,5.8,0,0,1,206.134,48.086Zm-2.372.085a4.316,4.316,0,0,0-.691-2.522,2.381,2.381,0,0,0-2.024-1.034,2.432,2.432,0,0,0-1.564.571,2.644,2.644,0,0,0-.915,1.5,3.107,3.107,0,0,0-.109.708V49.14a2.81,2.81,0,0,0,.7,1.93,2.331,2.331,0,0,0,1.823.787,2.382,2.382,0,0,0,2.047-1.013A4.457,4.457,0,0,0,203.761,48.171Zm15.844,1.206a3.88,3.88,0,0,1-1.291,3.018,5.727,5.727,0,0,1-3.958,1.271,6.909,6.909,0,0,1-3.762-.9l.538-1.939a6.476,6.476,0,0,0,3.363.906,3.171,3.171,0,0,0,2.047-.592,1.935,1.935,0,0,0,.735-1.582,2.028,2.028,0,0,0-.605-1.488,5.605,5.605,0,0,0-2-1.12q-3.816-1.423-3.817-4.16a3.673,3.673,0,0,1,1.347-2.93,5.328,5.328,0,0,1,3.568-1.143,7.05,7.05,0,0,1,3.3.69l-.584,1.9a5.77,5.77,0,0,0-2.792-.668,2.84,2.84,0,0,0-1.926.6,1.728,1.728,0,0,0-.584,1.316,1.778,1.778,0,0,0,.669,1.422,7.54,7.54,0,0,0,2.111,1.12,7.159,7.159,0,0,1,2.759,1.766A3.679,3.679,0,0,1,219.605,49.377Zm7.715-4.653h-2.566v5.085q0,1.94,1.358,1.938a4.09,4.09,0,0,0,1.034-.108l.064,1.767a5.275,5.275,0,0,1-1.81.257,2.79,2.79,0,0,1-2.156-.842A4.125,4.125,0,0,1,222.469,50V44.72h-1.528V42.973h1.528V41.056l2.286-.69v2.608h2.566Zm11.553,3.4a5.745,5.745,0,0,1-1.38,3.965,4.92,4.92,0,0,1-3.836,1.595,4.689,4.689,0,0,1-3.676-1.528,5.569,5.569,0,0,1-1.369-3.857,5.7,5.7,0,0,1,1.412-3.986,4.894,4.894,0,0,1,3.806-1.552,4.788,4.788,0,0,1,3.707,1.53,5.5,5.5,0,0,1,1.337,3.833Zm-2.412.053a4.686,4.686,0,0,0-.624-2.471,2.3,2.3,0,0,0-2.092-1.247,2.337,2.337,0,0,0-2.134,1.247,4.766,4.766,0,0,0-.625,2.514,4.675,4.675,0,0,0,.625,2.472,2.387,2.387,0,0,0,4.206-.021A4.7,4.7,0,0,0,236.461,48.182Zm9.981-3.157a4.051,4.051,0,0,0-.734-.064,2.2,2.2,0,0,0-1.9.928,3.493,3.493,0,0,0-.581,2.068v5.5H240.9V46.276q0-1.649-.068-3.3h2.027l.085,2h.064a3.6,3.6,0,0,1,1.164-1.66,2.815,2.815,0,0,1,1.682-.561,3.738,3.738,0,0,1,.582.043Zm10.41,2.695a5.457,5.457,0,0,1-.085,1.055h-6.983a3.037,3.037,0,0,0,1.013,2.373,3.464,3.464,0,0,0,2.284.731,7.727,7.727,0,0,0,2.825-.494L256.271,53a8.735,8.735,0,0,1-3.512.647,5.093,5.093,0,0,1-3.828-1.432,5.293,5.293,0,0,1-1.39-3.846,6,6,0,0,1,1.295-3.942,4.461,4.461,0,0,1,3.663-1.68,3.9,3.9,0,0,1,3.429,1.68,5.651,5.651,0,0,1,.924,3.294Zm-2.219-.6a3.152,3.152,0,0,0-.452-1.789,2.033,2.033,0,0,0-1.854-.971,2.207,2.207,0,0,0-1.853.948,3.478,3.478,0,0,0-.689,1.81ZM172.848,33.791a14.871,14.871,0,0,1-1.674-.085V26.684a12.675,12.675,0,0,1,1.971-.148c2.669,0,3.9,1.313,3.9,3.453C177.043,32.457,175.591,33.791,172.848,33.791Zm.391-6.356a4.647,4.647,0,0,0-.921.074v5.338a6.041,6.041,0,0,0,.773.032,2.529,2.529,0,0,0,2.745-2.86A2.329,2.329,0,0,0,173.239,27.436Zm7.636,6.409a2.45,2.45,0,0,1-2.48-2.648,2.507,2.507,0,0,1,2.565-2.722,2.431,2.431,0,0,1,2.479,2.638A2.522,2.522,0,0,1,180.874,33.845Zm.044-4.534c-.827,0-1.356.773-1.356,1.853,0,1.06.54,1.833,1.345,1.833s1.345-.826,1.345-1.854c0-1.047-.529-1.831-1.334-1.831Zm11.1-.73-1.611,5.147h-1.049l-.667-2.235a16.96,16.96,0,0,1-.414-1.662h-.022a11.12,11.12,0,0,1-.413,1.662l-.71,2.235h-1.06l-1.515-5.147h1.176l.583,2.447q.207.874.349,1.653h.022a16.9,16.9,0,0,1,.424-1.642l.731-2.457h.932l.7,2.4q.243.838.414,1.7h.031a14.837,14.837,0,0,1,.349-1.7l.626-2.4Zm5.928,5.147H196.8V30.773c0-.91-.349-1.367-1.038-1.367a1.188,1.188,0,0,0-1.144,1.261v3.061h-1.144V30.052c0-.455-.011-.943-.043-1.472h1.007l.053.794h.032a1.849,1.849,0,0,1,1.632-.9c1.081,0,1.79.827,1.79,2.171Zm3.155,0h-1.145V26.219H201.1Zm4.171.117a2.451,2.451,0,0,1-2.48-2.648,2.507,2.507,0,0,1,2.564-2.722,2.43,2.43,0,0,1,2.479,2.638A2.521,2.521,0,0,1,205.272,33.845Zm.043-4.534c-.827,0-1.356.773-1.356,1.853,0,1.06.541,1.833,1.344,1.833s1.345-.826,1.345-1.854c0-1.047-.527-1.831-1.333-1.831Zm7.032,4.417-.083-.593h-.031a1.758,1.758,0,0,1-1.506.709,1.5,1.5,0,0,1-1.578-1.515c0-1.27,1.1-1.927,3.009-1.927v-.095c0-.678-.359-1.017-1.069-1.017a2.41,2.41,0,0,0-1.345.382l-.233-.752a3.292,3.292,0,0,1,1.768-.445c1.345,0,2.024.71,2.024,2.13v1.9a7.781,7.781,0,0,0,.074,1.229Zm-.157-2.564c-1.271,0-1.908.308-1.908,1.038a.729.729,0,0,0,.785.8,1.1,1.1,0,0,0,1.123-1.048Zm6.671,2.564-.053-.827h-.032a1.726,1.726,0,0,1-1.653.943,2.346,2.346,0,0,1-2.16-2.627c0-1.61.953-2.744,2.254-2.744a1.547,1.547,0,0,1,1.452.7h.023V26.219h1.145V32.34c0,.5.012.964.043,1.387Zm-.169-3.029a1.246,1.246,0,0,0-1.205-1.335c-.848,0-1.367.752-1.367,1.811,0,1.038.538,1.749,1.344,1.749a1.285,1.285,0,0,0,1.228-1.367Zm8.406,3.145a2.45,2.45,0,0,1-2.478-2.648,2.507,2.507,0,0,1,2.563-2.722,2.43,2.43,0,0,1,2.48,2.638,2.521,2.521,0,0,1-2.565,2.732Zm.043-4.534c-.825,0-1.355.773-1.355,1.853,0,1.06.54,1.833,1.344,1.833s1.345-.826,1.345-1.854C228.476,30.095,227.946,29.311,227.14,29.311Zm8.675,4.417h-1.145V30.773c0-.91-.349-1.367-1.038-1.367a1.187,1.187,0,0,0-1.143,1.261v3.061h-1.145V30.052c0-.455-.011-.943-.043-1.472h1.007l.053.794h.032a1.849,1.849,0,0,1,1.631-.9c1.081,0,1.791.826,1.791,2.171Zm7.7-4.289h-1.259v2.5c0,.636.22.954.666.954a2.255,2.255,0,0,0,.508-.053l.032.869a2.533,2.533,0,0,1-.887.128c-.9,0-1.441-.5-1.441-1.8v-2.6h-.751v-.858h.751v-.943l1.123-.34V28.58h1.259Zm6.057,4.289h-1.143V30.794c0-.921-.348-1.387-1.038-1.387a1.122,1.122,0,0,0-1.145,1.218v3.1H245.1V26.219h1.143v3.092h.023a1.736,1.736,0,0,1,1.548-.837c1.089,0,1.755.847,1.755,2.193Zm6.206-2.3h-3.434a1.477,1.477,0,0,0,1.622,1.525,3.869,3.869,0,0,0,1.388-.243l.178.795a4.3,4.3,0,0,1-1.727.318,2.39,2.39,0,0,1-2.563-2.594,2.514,2.514,0,0,1,2.435-2.765,2.162,2.162,0,0,1,2.141,2.447A2.2,2.2,0,0,1,255.775,31.429Zm-1.049-.815c0-.795-.4-1.356-1.132-1.356a1.357,1.357,0,0,0-1.251,1.356Z" transform="translate(-169.812 -26.219)" fill="#040345"/>
    </g>
  </g>
</svg>
