<svg id="apple-itunes-seeklogo.com" xmlns="http://www.w3.org/2000/svg" width="120.048" height="34.717" viewBox="0 0 120.048 34.717">
  <path id="Path_20800" data-name="Path 20800" d="M7134.173,7202.63a24.861,24.861,0,0,1-2.254,4.212c-1.465,2.231-3.53,5.006-6.088,5.031-2.274.021-2.86-1.479-5.946-1.464s-3.728,1.489-6,1.468c-2.559-.023-4.516-2.53-5.98-4.759-4.1-6.235-4.524-13.552-2-17.441a9.064,9.064,0,0,1,7.292-4.382c2.711,0,4.416,1.487,6.657,1.487,2.176,0,3.5-1.49,6.636-1.49a8.863,8.863,0,0,1,6.672,3.521A7.628,7.628,0,0,0,7134.173,7202.63Z" transform="translate(-7104.335 -7177.163)" fill="#7d8e9f"/>
  <path id="Path_20801" data-name="Path 20801" d="M7132.627,7177.973a7.611,7.611,0,0,0,1.689-5.636,8.218,8.218,0,0,0-5.308,2.855,7.069,7.069,0,0,0-1.736,5.5A6.947,6.947,0,0,0,7132.627,7177.973Z" transform="translate(-7112.851 -7172.337)" fill="#7d8e9f"/>
  <g id="Group_2836" data-name="Group 2836" transform="translate(35.387 13.239)">
    <path id="Path_20802" data-name="Path 20802" d="M7165.583,7195.755a2.3,2.3,0,0,1-2.47,2.289,2.305,2.305,0,1,1,.029-4.607A2.3,2.3,0,0,1,7165.583,7195.755Zm-4.729,18.824v-14.728h4.578v14.728Zm12.318-16.445h-5.451v-3.854h15.6v3.854h-5.541v16.445h-4.609Zm24.7,11.719c0,1.928.062,3.492.118,4.727h-3.975l-.212-2.077h-.089a5.257,5.257,0,0,1-4.609,2.412c-2.983,0-5.182-1.869-5.182-6.418v-8.641h4.608v7.92c0,2.139.692,3.434,2.289,3.434a2.46,2.46,0,0,0,2.288-1.6,2.567,2.567,0,0,0,.149-.994v-8.763h4.611v10Zm3.674-5.3c0-1.837-.062-3.405-.12-4.7h3.976l.21,2.018h.092a5.393,5.393,0,0,1,4.548-2.35c3.012,0,5.269,1.988,5.269,6.325v8.734h-4.576v-8.162c0-1.9-.664-3.19-2.318-3.19a2.445,2.445,0,0,0-2.319,1.714,3.311,3.311,0,0,0-.18,1.144v8.494h-4.578V7204.55Zm21.173,4.128c.15,1.9,2.017,2.8,4.156,2.8a12.925,12.925,0,0,0,4.065-.6l.6,3.1a14.559,14.559,0,0,1-5.333.932c-5,0-7.859-2.92-7.859-7.529,0-3.735,2.318-7.861,7.439-7.861,4.759,0,6.564,3.7,6.564,7.35a11.01,11.01,0,0,1-.148,1.808Zm5.391-3.134c0-1.113-.482-2.981-2.591-2.981a3.009,3.009,0,0,0-2.833,2.981Zm6.957,5.03a8.944,8.944,0,0,0,3.945,1.113c1.387,0,1.958-.482,1.958-1.235s-.451-1.113-2.169-1.687c-3.043-1.023-4.217-2.68-4.186-4.4,0-2.772,2.35-4.852,5.993-4.852a9.852,9.852,0,0,1,4.157.846l-.813,3.161a7.232,7.232,0,0,0-3.192-.844c-1.112,0-1.747.452-1.747,1.206,0,.692.573,1.054,2.38,1.686,2.8.964,3.976,2.38,4,4.548,0,2.742-2.167,4.788-6.385,4.788a10.373,10.373,0,0,1-4.758-1.056Z" transform="translate(-7160.733 -7193.437)" fill="#7d8e9f"/>
  </g>
</svg>
