<svg id="apple-music" xmlns="http://www.w3.org/2000/svg" width="132.542" height="31.52" viewBox="0 0 132.542 31.52">
  <path id="Path_20803" data-name="Path 20803" d="M21.409,17.207a6.587,6.587,0,0,1,3.32-5.989A7.27,7.27,0,0,0,19.1,8.1a8.042,8.042,0,0,0-3.382.631,16.583,16.583,0,0,1-2.491.819,7.478,7.478,0,0,1-2.246-.693A7.6,7.6,0,0,0,8.156,8.16,7.008,7.008,0,0,0,4.5,9.247a7.787,7.787,0,0,0-2.7,2.884A10.784,10.784,0,0,0,.5,17.553a17.733,17.733,0,0,0,.952,5.674,19.148,19.148,0,0,0,2.275,4.759A15.324,15.324,0,0,0,5.88,30.7a3.608,3.608,0,0,0,2.707,1.26,6.848,6.848,0,0,0,2.336-.664,6.665,6.665,0,0,1,2.706-.6,6.459,6.459,0,0,1,2.614.6,6.724,6.724,0,0,0,2.46.631A4.071,4.071,0,0,0,21.348,30.7a7.469,7.469,0,0,0,.937-1.041q.585-.771,1.123-1.576.448-.694.846-1.418a14.266,14.266,0,0,0,.753-1.608q.152-.347.276-.709c.082-.242.164-.488.246-.74a6.994,6.994,0,0,1-4.119-6.4Zm22.3,5.619h-.149L37.312,8.556h-4.9V31.58h4.274V16.669h.2L42.1,28.509h3l5.2-11.841h.2V31.58H54.82V8.556H49.95ZM17.534,5.544A6.954,6.954,0,0,0,19.165,1.13V.816A1.664,1.664,0,0,0,19.134.5a6.012,6.012,0,0,0-2.414.725A6.7,6.7,0,0,0,14.613,2.9a6.527,6.527,0,0,0-1.66,4.256v.3a1.6,1.6,0,0,0,.031.3,5.088,5.088,0,0,0,4.551-2.207Zm87.235,3.012h4.8V31.58h-4.8Zm19.311,3.66a4.276,4.276,0,0,1,4.355,4.555h4.606v-.489c0-4.453-3.4-8.163-9-8.163-6,0-9.574,3.947-9.574,10.677v2.6c0,6.729,3.544,10.626,9.557,10.626,5.748,0,9.012-3.763,9.012-7.945v-.506h-4.606a4.082,4.082,0,0,1-4.322,4.352c-2.916,0-4.772-2.075-4.772-6.512v-2.6c0-4.422,1.873-6.6,4.738-6.6ZM73.192,23.1c0,3.088-1.805,4.791-4.456,4.791-2.667,0-4.472-1.687-4.472-4.791V8.556H59.493V23.77c0,4.91,3.478,8.249,9.242,8.249,5.748,0,9.243-3.339,9.243-8.249V8.556H73.192V23.1Zm20.679-4.925L90.443,17.4c-2.02-.423-3.081-1.317-3.081-2.65,0-1.77,1.441-2.884,3.761-2.884,2.617,0,3.925,1.5,4.041,3.121h4.472c-.05-4.066-3.445-6.9-8.5-6.9-4.786,0-8.564,2.514-8.564,7.034,0,3.913,2.651,5.734,5.831,6.427l3.4.792c2.286.523,3.445,1.283,3.445,2.85,0,1.789-1.425,3-4.091,3-2.866,0-4.373-1.519-4.505-3.223H82.045c.067,3.256,2.22,7.051,8.88,7.051,5.6,0,9.061-2.783,9.061-7.305,0-4.183-2.8-5.819-6.114-6.543Z" transform="translate(-0.5 -0.5)" fill="#7d8e9f"/>
</svg>
