<svg xmlns="http://www.w3.org/2000/svg" width="136.96" height="23.383" viewBox="0 0 136.96 23.383">
  <g id="g12" transform="translate(0 0)">
    <g id="Group_3489" data-name="Group 3489">
      <g id="g14">
        <g id="g20" transform="translate(27.967 0.334)">
          <path id="path22" d="M94.965,105.713v-1.568l-8.409-9.436L94.788,83.2H90.6L84.37,91.78V83.2h-3.9v22.51h3.9V97.746l7.016,7.966ZM74.8,90.319c0,2.357-1.328,4.425-3.867,4.425a6.371,6.371,0,0,1-2.042-.465V86.567h1.288c3.258,0,4.62,1.425,4.62,3.752m4.937,15.394v-1.568L73.332,97.5c3.294-.287,5.44-3.752,5.44-7.146,0-4-2.362-7.152-8.591-7.152h-5.19v22.51h3.9V97.675l7.337,8.038ZM62.33,96.887V83.2h-3.9V96.887c0,2.391-.323,5.928-3.472,5.928s-3.472-3.537-3.472-5.928V83.2h-3.9V96.887c0,4.825,1.932,9.365,7.373,9.365s7.373-4.54,7.373-9.365M47.21,86.782V83.2H33.431v3.579h4.94v18.931h3.865V86.782Z" transform="translate(-33.431 -83.203)" fill="#fff" fill-rule="evenodd"/>
        </g>
        <g id="g24" transform="translate(0 0.027)">
          <path id="path26" d="M3.995,105.655A14.044,14.044,0,0,1,0,101.219V102.8a2.859,2.859,0,0,0,2.853,2.852Zm21-5.217a14.356,14.356,0,0,1-4.456,5.217h1.6A2.86,2.86,0,0,0,25,102.8Zm-16.35-17.6h13.5c.09,0,.177,0,.264.011l0,.116-3.982,1.359,4.02,1.239.064,4.21,2.421-3.442.064.018v9.233a11.9,11.9,0,0,1-10.283,6.84A10.2,10.2,0,0,1,4.039,91.748a11.815,11.815,0,0,1,4.607-8.912m-5.793,0h.955a14.5,14.5,0,0,0-1.485,1.292A14.219,14.219,0,0,0,0,87.179V85.687a2.86,2.86,0,0,1,2.853-2.851" transform="translate(0 -82.836)" fill="#fff" fill-rule="evenodd"/>
        </g>
        <g id="g28" transform="translate(0 0.027)">
          <path id="path30" d="M3.995,105.655A14.044,14.044,0,0,1,0,101.219V102.8a2.859,2.859,0,0,0,2.853,2.852Zm21-5.217a14.356,14.356,0,0,1-4.456,5.217h1.6A2.86,2.86,0,0,0,25,102.8Zm-16.35-17.6h13.5c.09,0,.177,0,.264.011l0,.116-3.982,1.359,4.02,1.239.064,4.21,2.421-3.442.064.018v9.233a11.9,11.9,0,0,1-10.283,6.84A10.2,10.2,0,0,1,4.039,91.748,11.815,11.815,0,0,1,8.646,82.836Zm-5.793,0h.955a14.5,14.5,0,0,0-1.485,1.292A14.219,14.219,0,0,0,0,87.179V85.687A2.86,2.86,0,0,1,2.853,82.836Z" transform="translate(0 -82.836)" fill="#fff"/>
        </g>
        <g id="Group_3488" data-name="Group 3488" transform="translate(92.34)">
          <path id="Path_20814" data-name="Path 20814" d="M142.085,96.61h-1.459v2.938h1.421a1.957,1.957,0,0,0,1.292-.366,1.321,1.321,0,0,0,.428-1.057,1.469,1.469,0,0,0-.427-1.1A1.742,1.742,0,0,0,142.085,96.61Z" transform="translate(-115.325 -85.061)" fill="#fff" fill-rule="evenodd"/>
          <path id="Path_20815" data-name="Path 20815" d="M154.856,97.537l-1.154,3.616h2.354L154.9,97.537Z" transform="translate(-117.462 -85.212)" fill="#fff" fill-rule="evenodd"/>
          <path id="Path_20816" data-name="Path 20816" d="M140.309,89.565a.618.618,0,0,0,.2-.5.691.691,0,0,0-.2-.518.82.82,0,0,0-.593-.193h-.686v1.384h.668A.919.919,0,0,0,140.309,89.565Z" transform="translate(-115.065 -83.711)" fill="#fff" fill-rule="evenodd"/>
          <path id="Path_20817" data-name="Path 20817" d="M129.283,97.537l-1.153,3.616h2.355l-1.158-3.616Z" transform="translate(-113.283 -85.212)" fill="#fff" fill-rule="evenodd"/>
          <path id="Path_20818" data-name="Path 20818" d="M119.475,96.61h-1.733v3.368h1.733a1.706,1.706,0,0,0,1.3-.468,1.679,1.679,0,0,0,.438-1.194,1.753,1.753,0,0,0-.438-1.225A1.678,1.678,0,0,0,119.475,96.61Z" transform="translate(-111.585 -85.061)" fill="#fff" fill-rule="evenodd"/>
          <path id="Path_20819" data-name="Path 20819" d="M144.779,91.744a1.033,1.033,0,0,0,.921-.465,2.195,2.195,0,0,0,.31-1.231v-.079a2.17,2.17,0,0,0-.311-1.218,1.044,1.044,0,0,0-.923-.468,1.015,1.015,0,0,0-.912.464,2.216,2.216,0,0,0-.3,1.221v.079a2.23,2.23,0,0,0,.3,1.231A1.016,1.016,0,0,0,144.779,91.744Z" transform="translate(-115.805 -83.699)" fill="#fff" fill-rule="evenodd"/>
          <path id="Path_20820" data-name="Path 20820" d="M156.185,88.26l-.5-.1-.5.1v3.467l.5.1.5-.1Z" transform="translate(-117.705 -83.68)" fill="#fff" fill-rule="evenodd"/>
          <path id="Path_20821" data-name="Path 20821" d="M151.816,82.8H113.565a3.172,3.172,0,0,0-3.183,3.141V102.5a3.171,3.171,0,0,0,3.183,3.141h38.251A3.171,3.171,0,0,0,155,102.5V85.945A3.172,3.172,0,0,0,151.816,82.8Zm-5.042,2.618h1.011v.8h-1.011Zm-9.606,3.657a2.591,2.591,0,0,1,.6-1.753,1.984,1.984,0,0,1,1.581-.7,2.013,2.013,0,0,1,1.591.7,2.574,2.574,0,0,1,.607,1.753v.072a2.566,2.566,0,0,1-.607,1.756,2.16,2.16,0,0,1-3.171,0,2.585,2.585,0,0,1-.6-1.756ZM116.723,90.95l.516-.1V87.384l-.516-.1V86.7h2v.584l-.519.1V90.79h1.366l.044-.607h.74v.758l.46-.089V87.384l-.515-.1V86.7h3.818v1.324h-.744l-.043-.576h-1.547v1.213h1.635v.748h-1.635V90.79h1.56l.042-.578h.739v1.32h-3.77V90.94l-.055.01v.581h-3.58Zm-3.937,0,.514-.1V87.384l-.514-.1V86.7H116.6v1.324h-.742l-.043-.576h-1.548v1.213h1.636v.748h-1.636V90.79h1.56l.044-.578h.735v1.32h-3.822Zm5.486,8.356h-1.733v2.277l1.1.21v1.235h-4.251v-1.235l1.1-.21V94.22l-1.1-.212V92.766h4.884a4.039,4.039,0,0,1,2.782.907,3.27,3.27,0,0,1,0,4.739A4.067,4.067,0,0,1,118.272,99.307Zm13.031,3.722h-3.494v-1.235l.709-.125-.449-1.41h-3.326l-.453,1.41.714.125v1.235h-3.5v-1.235l.734-.1,3.122-8.924h2.108l3.1,8.924.732.1Zm.865-15.581h-.89v3.4l.518.1v.581h-2V90.95l.514-.1v-3.4h-.883l-.038.54h-.743v-.693l-.462.079-1.189,1.588,1.336,1.907.482.082v.581H126.9V90.95l.3-.039-.931-1.4h-.54v1.337l.489.1v.581h-1.973V90.95l.514-.1V87.384l-.514-.1V86.7h1.973v.584l-.489.1v1.292h.421l.929-1.352-.286-.04V86.7h1.855v.595l.063-.011V86.7h4.158v.584l.088.017v-.6h2.082a2.009,2.009,0,0,1,1.292.376,1.265,1.265,0,0,1,.468,1.04,1.046,1.046,0,0,1-.2.634,1.349,1.349,0,0,1-.576.435,1.04,1.04,0,0,1,.617.421,1.326,1.326,0,0,1,.187.728v.246a.409.409,0,0,0,.064.247.276.276,0,0,0,.207.1l.12.017v.584h-.5a.781.781,0,0,1-.666-.255,1.053,1.053,0,0,1-.192-.661V90.34a.774.774,0,0,0-.189-.553.717.717,0,0,0-.53-.21h-.791v1.274l.518.1v.581h-2V90.95l.514-.1V87.384l-.427-.084v.687h-.743Zm9.609,15.581h-1.064a1.656,1.656,0,0,1-1.415-.544,2.25,2.25,0,0,1-.408-1.4V100.5a1.658,1.658,0,0,0-.4-1.175,1.535,1.535,0,0,0-1.125-.448h-1.682v2.708l1.1.21v1.235h-4.25v-1.235l1.092-.21V94.22l-1.092-.212V92.766h4.61a4.266,4.266,0,0,1,2.743.8,2.694,2.694,0,0,1,.993,2.208,2.213,2.213,0,0,1-.419,1.347,2.916,2.916,0,0,1-1.217.924,2.208,2.208,0,0,1,1.307.891,2.822,2.822,0,0,1,.4,1.548V101a.88.88,0,0,0,.136.525.6.6,0,0,0,.441.224l.255.033Zm10.917,0H149.2v-1.235l.711-.125-.45-1.41h-3.327l-.451,1.41.712.125v1.235h-3.5v-1.235l.735-.1,3.123-8.924h2.107l3.1,8.924.731.1Zm.223-11.5H151V90.95l.3-.039-.929-1.4h-.54v1.337l.489.1v.581h-1.939V90.95l-.018,0-.017,0v.581h-1.966V90.95l.516-.1V87.384l-.47-.091-.472.091v4.148h-.965l-1.951-3.253-.019,0v2.568l.518.1v.581h-2V90.95l.514-.1V87.384l-.514-.1V86.7h1.485l1.951,3.253.019,0V87.384l-.517-.1V86.7h1.908v.584l.046.009.047-.009V86.7h1.873v.584l.017,0,.018,0V86.7h1.939v.584l-.489.1v1.292h.422l.927-1.352-.283-.04V86.7h1.912v.584l-.524.09L151.1,88.961l1.335,1.907.482.082Z" transform="translate(-110.382 -82.804)" fill="#fff" fill-rule="evenodd"/>
        </g>
      </g>
    </g>
  </g>
</svg>
