<svg xmlns="http://www.w3.org/2000/svg" width="30.189" height="30.188" viewBox="0 0 30.189 30.188">
  <g id="Group_1707" data-name="Group 1707" opacity="0.8">
    <path id="Path_1334" data-name="Path 1334" d="M30.1,8.871a11.081,11.081,0,0,0-.7-3.664,7.4,7.4,0,0,0-1.741-2.674A7.4,7.4,0,0,0,24.982.792a11.078,11.078,0,0,0-3.664-.7C19.708.018,19.194,0,15.094,0S10.481.018,8.871.091a11.083,11.083,0,0,0-3.664.7A7.4,7.4,0,0,0,2.534,2.534,7.4,7.4,0,0,0,.792,5.207a11.079,11.079,0,0,0-.7,3.664C.018,10.481,0,10.995,0,15.094s.018,4.614.091,6.224a11.079,11.079,0,0,0,.7,3.664,7.4,7.4,0,0,0,1.741,2.673A7.4,7.4,0,0,0,5.207,29.4a11.076,11.076,0,0,0,3.664.7c1.61.073,2.124.091,6.223.091s4.614-.017,6.223-.091a11.077,11.077,0,0,0,3.664-.7A7.717,7.717,0,0,0,29.4,24.982a11.079,11.079,0,0,0,.7-3.664c.073-1.61.091-2.124.091-6.223S30.171,10.481,30.1,8.871ZM27.381,21.194a8.351,8.351,0,0,1-.52,2.8A5,5,0,0,1,24,26.862a8.351,8.351,0,0,1-2.8.52c-1.591.073-2.069.088-6.1.088s-4.508-.015-6.1-.088a8.354,8.354,0,0,1-2.8-.52,4.677,4.677,0,0,1-1.736-1.129A4.676,4.676,0,0,1,3.327,24a8.351,8.351,0,0,1-.52-2.8c-.073-1.592-.088-2.069-.088-6.1s.015-4.508.088-6.1a8.357,8.357,0,0,1,.52-2.8A4.679,4.679,0,0,1,4.457,4.457,4.673,4.673,0,0,1,6.192,3.327,8.35,8.35,0,0,1,9,2.808c1.592-.073,2.069-.088,6.1-.088h0c4.03,0,4.508.015,6.1.088a8.353,8.353,0,0,1,2.8.52,4.679,4.679,0,0,1,1.735,1.129,4.673,4.673,0,0,1,1.129,1.736,8.343,8.343,0,0,1,.52,2.8c.073,1.592.088,2.069.088,6.1S27.454,19.6,27.381,21.194Z" transform="translate(0 0)" fill="#fff"/>
    <path id="Path_1335" data-name="Path 1335" d="M131.482,124.539a6.943,6.943,0,1,0,6.943,6.943A6.943,6.943,0,0,0,131.482,124.539Zm0,11.45a4.507,4.507,0,1,1,4.507-4.507A4.507,4.507,0,0,1,131.482,135.989Z" transform="translate(-116.388 -116.388)" fill="#fff"/>
    <path id="Path_1336" data-name="Path 1336" d="M365.951,90.636a2.011,2.011,0,1,1-2.011-2.011A2.011,2.011,0,0,1,365.951,90.636Z" transform="translate(-340.91 -83.478)" fill="#fff"/>
  </g>
</svg>
