<svg xmlns="http://www.w3.org/2000/svg" width="299.182" height="350.798" viewBox="0 0 299.182 350.798">
  <g id="Group_266" data-name="Group 266" transform="translate(0)" opacity="0.8">
    <path id="Path_629" data-name="Path 629" d="M2923.514,758.8c-10.5-27.355-29.275-49.439-52.853-62.186-26.636-14.392-57.208-15.692-88.43-3.758l-123.253,47.525L2766.8,1020.022l36.483-14.07,9.7-84.858,49.844-19.218c31.11-12,52.906-33.347,63.031-61.752C2934.822,814.976,2933.994,786.1,2923.514,758.8Z" transform="translate(-2634.089 -670.517)" fill="none" stroke="#450e87" stroke-width="2"/>
    <path id="Path_630" data-name="Path 630" d="M2923.514,758.8c-10.5-27.355-29.275-49.439-52.853-62.186-26.636-14.392-57.208-15.692-88.43-3.758l-123.253,47.525L2766.8,1020.022l36.483-14.07,9.7-84.858,49.844-19.218c31.11-12,52.906-33.347,63.031-61.752C2934.822,814.976,2933.994,786.1,2923.514,758.8Z" transform="translate(-2658.979 -684.774)" fill="#450e87"/>
  </g>
</svg>
