<svg xmlns="http://www.w3.org/2000/svg" width="111.843" height="19.112" viewBox="0 0 111.843 19.112">
  <g id="Group_3260" data-name="Group 3260" transform="translate(-273.321 -701.597)">
    <path id="Path_631" data-name="Path 631" d="M385.164,720.709h-5.223v-7.947l-3.656,3.827h-.7l-3.63-3.825v7.945h-5.221V701.782h2.024l7.149,7.932,7.281-7.932h1.971Zm-25.01,0h-4.941l-1.082-2.324h-7.041l-1.082,2.324h-4.941v-.924l.018-.039,8.37-18.15h2.282l8.416,18.189Zm-25.662,0H328.9l-3.169-5.44h-2.219l-2.472,5.44H318.47V701.835h8.3a6.463,6.463,0,0,1,6.527,4.607,6.889,6.889,0,0,1-2.356,7.578l3.55,5.753Zm-22.608,0h-4.939l-1.083-2.324h-7.039l-1.082,2.324H292.8v-.924l.018-.039,8.37-18.15h2.282l8.415,18.189Zm-36,0h-2.568V701.835h8.328a6.536,6.536,0,0,1,5.128,2.233,7.756,7.756,0,0,1-.008,9.705,6.519,6.519,0,0,1-5.12,2.209H278.36Zm72.9-6.754h3.631l-1.839-4.175Zm-48.269,0h3.631l-1.837-4.175Zm-22.088-2.614h3.185c1.178,0,1.8-1.246,1.806-2.477.006-1.193-.551-2.4-1.808-2.415-.745-.018-1.526-.012-2.282-.006-.3,0-.607,0-.9.005Zm45.148-.66h3.186a1.935,1.935,0,0,0,1.775-2.136,1.867,1.867,0,0,0-1.777-2.1c-.74-.018-1.513-.012-2.259-.006-.31,0-.619,0-.924.005Z" transform="translate(0 0)" fill="#fff"/>
  </g>
</svg>
