<svg xmlns="http://www.w3.org/2000/svg" width="127.008" height="38.093" viewBox="0 0 127.008 38.093">
  <path id="spotify-seeklogo.com" d="M93.474,1369.145a19.047,19.047,0,1,0,19.046,19.046,19.046,19.046,0,0,0-19.046-19.046Zm8.735,27.47a1.187,1.187,0,0,1-1.632.4c-4.473-2.734-10.1-3.351-16.732-1.836a1.187,1.187,0,0,1-.528-2.314c7.255-1.659,13.479-.945,18.5,2.123a1.187,1.187,0,0,1,.393,1.633Zm2.331-5.185a1.486,1.486,0,0,1-2.043.489c-5.119-3.146-12.924-4.058-18.979-2.22a1.485,1.485,0,1,1-.863-2.841c6.917-2.1,15.516-1.082,21.4,2.531a1.484,1.484,0,0,1,.489,2.041Zm.2-5.4c-6.14-3.646-16.266-3.982-22.127-2.2a1.781,1.781,0,1,1-1.034-3.409c6.728-2.042,17.912-1.648,24.98,2.547a1.782,1.782,0,0,1-1.818,3.064Zm21.507.7c-3.289-.784-3.874-1.335-3.874-2.491,0-1.092,1.029-1.828,2.558-1.828a7.473,7.473,0,0,1,4.495,1.708.216.216,0,0,0,.163.04.213.213,0,0,0,.142-.088l1.606-2.263a.216.216,0,0,0-.041-.293,9.715,9.715,0,0,0-6.316-2.188c-3.551,0-6.031,2.131-6.031,5.18,0,3.269,2.139,4.427,5.837,5.321,3.147.725,3.678,1.332,3.678,2.418,0,1.2-1.074,1.951-2.8,1.951a7.552,7.552,0,0,1-5.237-2.163.227.227,0,0,0-.158-.052.213.213,0,0,0-.148.076l-1.8,2.143a.214.214,0,0,0,.021.3,10.733,10.733,0,0,0,7.249,2.78c3.826,0,6.3-2.091,6.3-5.327.007-2.731-1.628-4.244-5.634-5.218Zm14.3-3.244a5.159,5.159,0,0,0-4.141,1.992v-1.506a.216.216,0,0,0-.215-.216h-2.945a.216.216,0,0,0-.215.216v16.74a.215.215,0,0,0,.215.216h2.945a.216.216,0,0,0,.215-.216v-5.284a5.289,5.289,0,0,0,4.141,1.874c3.082,0,6.2-2.372,6.2-6.907s-3.116-6.908-6.2-6.908Zm2.777,6.908c0,2.309-1.422,3.921-3.459,3.921a3.942,3.942,0,0,1,0-7.841c2,0,3.459,1.648,3.459,3.92Zm11.42-6.908a6.922,6.922,0,1,0,7.053,6.908,6.944,6.944,0,0,0-7.053-6.908Zm0,10.852a3.745,3.745,0,0,1-3.7-3.945,3.657,3.657,0,0,1,3.654-3.9,3.756,3.756,0,0,1,3.727,3.946,3.666,3.666,0,0,1-3.678,3.9h0Zm15.527-10.583h-3.24v-3.313a.215.215,0,0,0-.215-.216h-2.944a.216.216,0,0,0-.216.216v3.313h-1.416a.215.215,0,0,0-.214.216v2.53a.215.215,0,0,0,.214.216h1.416v6.548c0,2.646,1.317,3.988,3.915,3.988a5.373,5.373,0,0,0,2.758-.686.215.215,0,0,0,.109-.187v-2.41a.216.216,0,0,0-.312-.193,3.708,3.708,0,0,1-1.729.417c-.945,0-1.366-.429-1.366-1.39v-6.085h3.24a.215.215,0,0,0,.215-.216v-2.53a.209.209,0,0,0-.212-.216Zm11.29.013v-.407c0-1.2.459-1.731,1.488-1.731a4.966,4.966,0,0,1,1.659.306.215.215,0,0,0,.283-.205v-2.481a.216.216,0,0,0-.152-.207,8.086,8.086,0,0,0-2.447-.351c-2.72,0-4.157,1.532-4.157,4.427v.623h-1.415a.217.217,0,0,0-.216.216v2.544a.217.217,0,0,0,.216.216h1.415v10.1a.215.215,0,0,0,.215.216h2.945a.216.216,0,0,0,.216-.216v-10.1h2.749l4.211,10.1c-.478,1.061-.948,1.272-1.59,1.272a3.4,3.4,0,0,1-1.624-.46.221.221,0,0,0-.171-.016.218.218,0,0,0-.127.116l-1,2.19a.214.214,0,0,0,.093.279,6.2,6.2,0,0,0,3.145.805c2.174,0,3.376-1.013,4.436-3.737l5.108-13.2a.215.215,0,0,0-.2-.294h-3.065a.216.216,0,0,0-.2.144l-3.14,8.97-3.44-8.976a.215.215,0,0,0-.2-.139h-5.03Zm-6.546-.013h-2.945a.216.216,0,0,0-.216.216v12.846a.216.216,0,0,0,.216.216h2.945a.216.216,0,0,0,.216-.216v-12.846a.216.216,0,0,0-.216-.216Zm-1.456-5.85a2.112,2.112,0,1,0,2.112,2.111,2.112,2.112,0,0,0-2.112-2.111Zm25.8,9.98a2.078,2.078,0,1,1,2.083-2.084,2.064,2.064,0,0,1-2.083,2.084Zm.011-3.949a1.871,1.871,0,1,0,1.855,1.865,1.853,1.853,0,0,0-1.855-1.865h0Zm.459,2.078.586.821h-.494l-.528-.753h-.454v.753h-.414v-2.176h.97c.505,0,.838.259.838.694a.646.646,0,0,1-.5.661Zm-.35-.981h-.539v.688h.539c.269,0,.43-.132.43-.344s-.161-.343-.43-.343Z" transform="translate(-74.428 -1369.145)" fill="#7d8e9f"/>
</svg>
