<svg xmlns="http://www.w3.org/2000/svg" width="21.071" height="21.071" viewBox="0 0 21.071 21.071">
  <g id="Group_67" data-name="Group 67" transform="translate(943.731 -216.724)">
    <circle id="Ellipse_4" data-name="Ellipse 4" cx="10.536" cy="10.536" r="10.536" transform="translate(-943.731 216.724)" fill="#d80027"/>
    <g id="Group_53" data-name="Group 53" transform="translate(-938.638 223.006)">
      <path id="Path_273" data-name="Path 273" d="M-760.234,198.509l.986,1.367,1.6-.521-.987,1.366.986,1.367-1.6-.523-.987,1.366v-1.689l-1.6-.523,1.6-.521Z" transform="translate(768.408 -196.514)" fill="#f0f0f0"/>
      <path id="Path_274" data-name="Path 274" d="M-924.373,155.165a3.406,3.406,0,0,1-3.395-3.418,3.406,3.406,0,0,1,3.395-3.418,3.362,3.362,0,0,1,1.615.411,4.149,4.149,0,0,0-2.92-1.2,4.192,4.192,0,0,0-4.178,4.206,4.192,4.192,0,0,0,4.178,4.206,4.149,4.149,0,0,0,2.92-1.2A3.361,3.361,0,0,1-924.373,155.165Z" transform="translate(929.857 -147.541)" fill="#f0f0f0"/>
    </g>
  </g>
</svg>
