<svg xmlns="http://www.w3.org/2000/svg" width="141.666" height="23.61" viewBox="0 0 141.666 23.61">
  <g id="g10" opacity="0.6">
    <g id="g12" transform="translate(0 0)">
      <g id="Group_3490" data-name="Group 3490">
        <g id="g14">
          <g id="g20" transform="translate(0 0)">
            <path id="path22" d="M13.23,169.528v3.991h3.092a.4.4,0,0,0,.4-.4v-3.592Zm-4.136,0v3.592a.4.4,0,0,0,.4.4h3.135v-3.991Zm3.534-4.514v-8.6H4.6a.639.639,0,0,0-.637.637v2.835a.64.64,0,0,0,.637.637h4.49l0,4.5.878,0Zm4.075,0v-4.5h4.6a.639.639,0,0,0,.636-.637v-2.835a.639.639,0,0,0-.636-.637H13.23v8.6h2.592Zm-12.256-4a.535.535,0,0,0-.534.534v11.439a.536.536,0,0,0,.534.535H8.493v-4.474H17.32v4.474h4.045a.536.536,0,0,0,.534-.535V161.554a.535.535,0,0,0-.534-.534H17.32v4.474H8.493v-4.474Zm-1.5-7.857H22.908a2.96,2.96,0,0,1,2.951,2.951v17.707a2.96,2.96,0,0,1-2.951,2.952H2.952A2.961,2.961,0,0,1,0,173.822V156.115a2.961,2.961,0,0,1,2.952-2.951" transform="translate(0 -153.164)" fill="#fff" fill-rule="evenodd"/>
          </g>
          <g id="g24" transform="translate(42.993 3.463)">
            <path id="path26" d="M93.963,161.837v5.858h-1.62v-5.858H90.286v-1.4H96.02v1.4Z" transform="translate(-90.286 -160.435)" fill="#fff" fill-rule="evenodd"/>
          </g>
          <g id="g28" transform="translate(49.329 3.463)">
            <path id="path30" d="M105.617,165.82a1.326,1.326,0,0,0,1.09.5,1.311,1.311,0,0,0,1.085-.5,2.153,2.153,0,0,0,.4-1.376v-4.01h1.62V164.5a3.227,3.227,0,0,1-.872,2.426,3.371,3.371,0,0,1-4.471-.006,3.219,3.219,0,0,1-.878-2.42v-4.061h1.62v4.01a2.137,2.137,0,0,0,.405,1.376" transform="translate(-103.592 -160.435)" fill="#fff" fill-rule="evenodd"/>
          </g>
          <g id="g32" transform="translate(56.756 3.463)">
            <path id="path34" d="M121.992,163.977a1.738,1.738,0,0,0,1.132-.271,1.1,1.1,0,0,0,.3-.857.92.92,0,0,0-.311-.8,2,2,0,0,0-1.09-.218h-1.215v2.15Zm3.085-1.132A2.139,2.139,0,0,1,123.7,165.1l1.838,2.6h-1.994l-1.61-2.315h-1.121v2.315h-1.62v-7.26h2.752a3.949,3.949,0,0,1,2.416.571,2.206,2.206,0,0,1,.721,1.839" transform="translate(-119.187 -160.435)" fill="#fff" fill-rule="evenodd"/>
          </g>
          <g id="g36" transform="translate(63.725 3.463)">
            <path id="path38" d="M135.849,165.82a1.326,1.326,0,0,0,1.09.5,1.312,1.312,0,0,0,1.085-.5,2.15,2.15,0,0,0,.4-1.376v-4.01h1.62V164.5a3.225,3.225,0,0,1-.873,2.426,3.37,3.37,0,0,1-4.471-.006,3.216,3.216,0,0,1-.878-2.42v-4.061h1.62v4.01a2.132,2.132,0,0,0,.405,1.376" transform="translate(-133.824 -160.435)" fill="#fff" fill-rule="evenodd"/>
          </g>
          <g id="g40" transform="translate(71.152 3.463)">
            <path id="path42" d="M154.5,160.435h1.62v7.26H154.5l-3.459-4.549v4.549h-1.62v-7.26h1.516l3.563,4.674Z" transform="translate(-149.419 -160.435)" fill="#fff" fill-rule="evenodd"/>
          </g>
          <g id="g44" transform="translate(78.724 3.298)">
            <path id="path46" d="M169.09,166.08a2.389,2.389,0,0,0,1.952-.945l1.039,1.069a3.917,3.917,0,0,1-5.676.332,3.838,3.838,0,0,1,.021-5.369,3.727,3.727,0,0,1,2.706-1.08,3.834,3.834,0,0,1,2.991,1.36l-1.007,1.143a2.36,2.36,0,0,0-1.912-.955,2.232,2.232,0,0,0-1.563.6,2.084,2.084,0,0,0-.649,1.61,2.189,2.189,0,0,0,.614,1.626,2.018,2.018,0,0,0,1.484.613" transform="translate(-165.32 -160.088)" fill="#fff" fill-rule="evenodd"/>
          </g>
          <g id="g48" transform="translate(86.182 3.463)">
            <path id="path50" d="M183.006,165.82a1.327,1.327,0,0,0,1.09.5,1.308,1.308,0,0,0,1.085-.5,2.15,2.15,0,0,0,.4-1.376v-4.01h1.62V164.5a3.227,3.227,0,0,1-.873,2.426,3.372,3.372,0,0,1-4.472-.006,3.22,3.22,0,0,1-.877-2.42v-4.061h1.62v4.01a2.137,2.137,0,0,0,.4,1.376" transform="translate(-180.982 -160.435)" fill="#fff" fill-rule="evenodd"/>
          </g>
          <g id="g52" transform="translate(96.35 3.463)">
            <path id="path54" d="M206.844,160.435h1.62v7.26h-1.62v-2.856h-2.889v2.856h-1.619v-7.26h1.619v3.033h2.889Z" transform="translate(-202.335 -160.435)" fill="#fff" fill-rule="evenodd"/>
          </g>
          <g id="g56" transform="translate(103.371 3.297)">
            <path id="path58" d="M223.6,166.51a3.955,3.955,0,0,1-5.421,0,3.8,3.8,0,0,1,0-5.349,3.956,3.956,0,0,1,5.421,0,3.8,3.8,0,0,1,0,5.349m-.55-2.669a2.373,2.373,0,0,0-.624-1.657,2.056,2.056,0,0,0-3.064,0,2.511,2.511,0,0,0,0,3.309,2.067,2.067,0,0,0,3.064,0,2.356,2.356,0,0,0,.624-1.652" transform="translate(-217.079 -160.087)" fill="#fff" fill-rule="evenodd"/>
          </g>
          <g id="g60" transform="translate(111.888 3.463)">
            <path id="path62" d="M234.965,167.695v-7.26h1.621v5.817h3.094v1.443Z" transform="translate(-234.965 -160.435)" fill="#fff" fill-rule="evenodd"/>
          </g>
          <g id="g64" transform="translate(117.31 3.463)">
            <path id="path66" d="M249,166.262a2.4,2.4,0,0,0,1.709-.561,2.126,2.126,0,0,0,.6-1.631,2.18,2.18,0,0,0-.6-1.646,2.551,2.551,0,0,0-1.833-.576h-.9v4.414Zm-.083-5.827a4.265,4.265,0,0,1,2.981.951,3.407,3.407,0,0,1,1.039,2.643,3.568,3.568,0,0,1-1.013,2.68,4.274,4.274,0,0,1-3.09.987h-2.482v-7.26Z" transform="translate(-246.352 -160.435)" fill="#fff" fill-rule="evenodd"/>
          </g>
          <g id="g68" transform="translate(124.465 2.861)">
            <path id="path70" d="M261.644,160.734a.93.93,0,1,1,.649.264.885.885,0,0,1-.649-.264m1.427,6.3h-1.556v-5.588h1.556Z" transform="translate(-261.378 -159.171)" fill="#fff" fill-rule="evenodd"/>
          </g>
          <g id="g72" transform="translate(127.312 3.463)">
            <path id="path74" d="M272.435,160.435h1.621v7.26h-1.621l-3.459-4.549v4.549h-1.62v-7.26h1.518l3.561,4.674Z" transform="translate(-267.356 -160.435)" fill="#fff" fill-rule="evenodd"/>
          </g>
          <g id="g76" transform="translate(134.906 3.298)">
            <path id="path78" d="M288.432,163.817h1.631v2.575a3.809,3.809,0,0,1-2.992,1.2,3.691,3.691,0,0,1-2.684-1.06,3.838,3.838,0,0,1,.021-5.369,3.68,3.68,0,0,1,2.668-1.08,3.946,3.946,0,0,1,2.717,1.028l-.841,1.214a3.22,3.22,0,0,0-.9-.586,2.406,2.406,0,0,0-.886-.16,2.131,2.131,0,0,0-1.559.628,2.507,2.507,0,0,0-.026,3.3,1.967,1.967,0,0,0,1.45.618,2.778,2.778,0,0,0,1.4-.322Z" transform="translate(-283.303 -160.088)" fill="#fff" fill-rule="evenodd"/>
          </g>
          <g id="g80" transform="translate(44.001 16.253)">
            <path id="path82" d="M95.774,190.894H95.4a.166.166,0,0,1-.106-.033.208.208,0,0,1-.06-.082l-.336-.87H93.279l-.336.87a.174.174,0,0,1-.058.079.159.159,0,0,1-.106.036H92.4l1.439-3.6h.493Zm-1.015-1.336-.566-1.465c-.017-.043-.034-.094-.052-.152s-.036-.119-.053-.185a2.732,2.732,0,0,1-.108.339l-.566,1.462Z" transform="translate(-92.403 -187.295)" fill="#fff" fill-rule="evenodd"/>
          </g>
          <g id="g84" transform="translate(49.575 16.254)">
            <path id="path86" d="M107.024,187.3v3.6h-.243a.2.2,0,0,1-.1-.02.274.274,0,0,1-.078-.067l-2.082-2.714c0,.042.006.083.008.124s0,.078,0,.112V190.9h-.427v-3.6h.252a.376.376,0,0,1,.055,0,.188.188,0,0,1,.04.012.153.153,0,0,1,.035.025.3.3,0,0,1,.038.043l2.082,2.71c0-.044-.006-.085-.009-.127s0-.079,0-.117V187.3Z" transform="translate(-104.107 -187.296)" fill="#fff" fill-rule="evenodd"/>
          </g>
          <g id="g88" transform="translate(54.916 16.213)">
            <path id="path90" d="M118.373,189.051a1.824,1.824,0,0,0-.09-.6,1.248,1.248,0,0,0-.257-.446,1.116,1.116,0,0,0-.4-.28,1.46,1.46,0,0,0-1.052,0,1.13,1.13,0,0,0-.4.28,1.236,1.236,0,0,0-.258.446,1.989,1.989,0,0,0,0,1.189,1.235,1.235,0,0,0,.258.444,1.117,1.117,0,0,0,.4.28,1.48,1.48,0,0,0,1.052,0,1.1,1.1,0,0,0,.4-.28,1.248,1.248,0,0,0,.257-.444,1.811,1.811,0,0,0,.09-.594m.5,0a2.058,2.058,0,0,1-.129.742,1.7,1.7,0,0,1-.361.581,1.641,1.641,0,0,1-.561.378,2.013,2.013,0,0,1-1.448,0,1.63,1.63,0,0,1-.56-.378,1.683,1.683,0,0,1-.362-.581,2.214,2.214,0,0,1,0-1.484,1.7,1.7,0,0,1,.362-.583,1.608,1.608,0,0,1,.56-.38,1.993,1.993,0,0,1,1.448,0,1.618,1.618,0,0,1,.561.38,1.709,1.709,0,0,1,.361.583,2.059,2.059,0,0,1,.129.742" transform="translate(-115.323 -187.21)" fill="#fff" fill-rule="evenodd"/>
          </g>
          <g id="g92" transform="translate(60.889 16.254)">
            <path id="path94" d="M130.784,187.3v3.6h-.244a.2.2,0,0,1-.1-.02.281.281,0,0,1-.078-.067l-2.082-2.714c0,.042.006.083.007.124s0,.078,0,.112V190.9h-.427v-3.6h.251a.39.39,0,0,1,.056,0,.183.183,0,0,1,.04.012.18.18,0,0,1,.035.025.371.371,0,0,1,.038.043l2.083,2.71c0-.044-.006-.085-.009-.127s0-.079,0-.117V187.3Z" transform="translate(-127.867 -187.296)" fill="#fff" fill-rule="evenodd"/>
          </g>
          <g id="g96" transform="translate(66.395 15.304)">
            <path id="path98" d="M140.043,185.611a.274.274,0,0,1-.025.115.3.3,0,0,1-.068.1.336.336,0,0,1-.1.067.281.281,0,0,1-.12.026.26.26,0,0,1-.115-.026.315.315,0,0,1-.1-.067.3.3,0,0,1-.065-.1.281.281,0,0,1-.024-.115.29.29,0,0,1,.024-.118.348.348,0,0,1,.065-.1.341.341,0,0,1,.1-.067.273.273,0,0,1,.115-.025.294.294,0,0,1,.12.025.365.365,0,0,1,.1.067.338.338,0,0,1,.068.1.282.282,0,0,1,.025.118m-.068,4.24h-.488v-3.6h.488Z" transform="translate(-139.43 -185.302)" fill="#fff" fill-rule="evenodd"/>
          </g>
          <g id="g100" transform="translate(69.587 16.254)">
            <path id="path102" d="M149.88,187.3v3.6h-.427v-2.644c0-.035,0-.073,0-.113s0-.082.008-.123l-1.236,2.251a.189.189,0,0,1-.176.112h-.07a.186.186,0,0,1-.175-.112L146.546,188a2.114,2.114,0,0,1,.015.247V190.9h-.428v-3.6h.36a.31.31,0,0,1,.1.012.14.14,0,0,1,.068.071l1.244,2.215c.02.04.04.081.059.124s.038.09.054.134c.016-.045.034-.09.053-.136s.038-.085.06-.126l1.221-2.212a.132.132,0,0,1,.067-.071.313.313,0,0,1,.1-.012Z" transform="translate(-146.134 -187.296)" fill="#fff" fill-rule="evenodd"/>
          </g>
          <g id="g104" transform="translate(76.973 16.213)">
            <path id="path106" d="M163.778,187.813a.179.179,0,0,1-.048.056.114.114,0,0,1-.064.02.179.179,0,0,1-.1-.043,1.577,1.577,0,0,0-.144-.1,1.223,1.223,0,0,0-.208-.093.9.9,0,0,0-.3-.043.874.874,0,0,0-.288.044.607.607,0,0,0-.207.12.461.461,0,0,0-.127.177.558.558,0,0,0-.044.22.41.41,0,0,0,.075.25.638.638,0,0,0,.2.17,1.472,1.472,0,0,0,.276.121l.316.108c.108.037.213.078.317.123a1.115,1.115,0,0,1,.277.176.8.8,0,0,1,.2.258.86.86,0,0,1,.074.377,1.2,1.2,0,0,1-.067.4,1.043,1.043,0,0,1-.192.339,1.053,1.053,0,0,1-.31.247,1.3,1.3,0,0,1-.421.13l-.046.163a.756.756,0,0,1,.337.136.28.28,0,0,1,.1.223.271.271,0,0,1-.04.147.354.354,0,0,1-.11.11.575.575,0,0,1-.173.068.948.948,0,0,1-.221.024.871.871,0,0,1-.2-.021,1.069,1.069,0,0,1-.17-.056l.043-.139a.058.058,0,0,1,.058-.045.072.072,0,0,1,.033.009.523.523,0,0,1,.05.021.549.549,0,0,0,.069.02.4.4,0,0,0,.09.01.249.249,0,0,0,.159-.043.129.129,0,0,0,.054-.107.138.138,0,0,0-.1-.136,1.542,1.542,0,0,0-.3-.063l.1-.3a1.562,1.562,0,0,1-.611-.135,1.492,1.492,0,0,1-.47-.334l.141-.232a.177.177,0,0,1,.049-.047.118.118,0,0,1,.064-.018.133.133,0,0,1,.074.026.837.837,0,0,1,.094.067c.036.027.075.057.12.088a1.137,1.137,0,0,0,.156.088,1.118,1.118,0,0,0,.445.093.931.931,0,0,0,.309-.048.687.687,0,0,0,.231-.135.579.579,0,0,0,.144-.207.7.7,0,0,0,.05-.269.445.445,0,0,0-.074-.268.6.6,0,0,0-.195-.175,1.438,1.438,0,0,0-.277-.12l-.317-.1a2.932,2.932,0,0,1-.315-.119,1.035,1.035,0,0,1-.277-.175.811.811,0,0,1-.194-.27.983.983,0,0,1,.216-1.087,1.07,1.07,0,0,1,.348-.22,1.287,1.287,0,0,1,.476-.083,1.529,1.529,0,0,1,.55.1,1.32,1.32,0,0,1,.435.276Z" transform="translate(-161.643 -187.21)" fill="#fff" fill-rule="evenodd"/>
          </g>
          <g id="g108" transform="translate(81.663 15.304)">
            <path id="path110" d="M172.105,185.611a.268.268,0,0,1-.026.115.276.276,0,0,1-.068.1.334.334,0,0,1-.1.067.282.282,0,0,1-.12.026.259.259,0,0,1-.115-.026.308.308,0,0,1-.1-.067.277.277,0,0,1-.066-.1.274.274,0,0,1-.024-.115.282.282,0,0,1,.024-.118.314.314,0,0,1,.066-.1.333.333,0,0,1,.1-.067.271.271,0,0,1,.115-.025.3.3,0,0,1,.12.025.363.363,0,0,1,.1.067.312.312,0,0,1,.068.1.275.275,0,0,1,.026.118m-.068,4.24h-.487v-3.6h.487Z" transform="translate(-171.492 -185.302)" fill="#fff" fill-rule="evenodd"/>
          </g>
          <g id="g112" transform="translate(84.855 16.253)">
            <path id="path114" d="M180.857,190.894h-.433a.219.219,0,0,1-.2-.1l-.934-1.286a.27.27,0,0,0-.09-.088.341.341,0,0,0-.152-.026h-.37v1.5H178.2v-3.6h1.017a2.282,2.282,0,0,1,.591.068,1.159,1.159,0,0,1,.412.2.8.8,0,0,1,.239.316,1.045,1.045,0,0,1,.079.412,1.031,1.031,0,0,1-.06.357,1,1,0,0,1-.174.3,1.082,1.082,0,0,1-.28.225,1.465,1.465,0,0,1-.373.14.484.484,0,0,1,.161.153Zm-1.664-1.857a1.238,1.238,0,0,0,.375-.051.782.782,0,0,0,.27-.145.6.6,0,0,0,.164-.225.722.722,0,0,0,.057-.288.58.58,0,0,0-.211-.486,1.029,1.029,0,0,0-.634-.162h-.532v1.358Z" transform="translate(-178.197 -187.295)" fill="#fff" fill-rule="evenodd"/>
          </g>
          <g id="g116" transform="translate(89.731 16.254)">
            <path id="path118" d="M188.92,188.873h.184a.417.417,0,0,0,.154-.024.256.256,0,0,0,.1-.081l1.2-1.357a.3.3,0,0,1,.106-.09.331.331,0,0,1,.135-.025h.412l-1.37,1.55a.979.979,0,0,1-.1.1.593.593,0,0,1-.1.064.405.405,0,0,1,.123.066.642.642,0,0,1,.108.114l1.431,1.706h-.421a.485.485,0,0,1-.081-.006.25.25,0,0,1-.06-.02.358.358,0,0,1-.043-.033.336.336,0,0,1-.037-.043l-1.24-1.43a.326.326,0,0,0-.108-.09.46.46,0,0,0-.176-.025h-.222V190.9h-.484v-3.6h.484Z" transform="translate(-188.436 -187.296)" fill="#fff" fill-rule="evenodd"/>
          </g>
          <g id="g120" transform="translate(94.788 16.253)">
            <path id="path122" d="M201.275,190.5l0,.4h-2.217v-3.6h2.217v.4h-1.73v1.2h1.4v.383h-1.4V190.5Z" transform="translate(-199.055 -187.295)" fill="#fff" fill-rule="evenodd"/>
          </g>
          <g id="g124" transform="translate(99.033 16.254)">
            <path id="path126" d="M210.788,187.705h-1.165v3.19h-.485v-3.19H207.97V187.3h2.818Z" transform="translate(-207.97 -187.296)" fill="#fff" fill-rule="evenodd"/>
          </g>
          <g id="g128" transform="translate(104.054 15.304)">
            <path id="path130" d="M219.127,185.611a.261.261,0,0,1-.026.115.283.283,0,0,1-.066.1.354.354,0,0,1-.1.067.28.28,0,0,1-.234,0,.329.329,0,0,1-.1-.067.311.311,0,0,1-.089-.211.289.289,0,0,1,.025-.118.318.318,0,0,1,.064-.1.358.358,0,0,1,.1-.067.29.29,0,0,1,.234,0,.386.386,0,0,1,.1.067.321.321,0,0,1,.066.1.268.268,0,0,1,.026.118m-.067,4.24h-.488v-3.6h.488Z" transform="translate(-218.514 -185.302)" fill="#fff" fill-rule="evenodd"/>
          </g>
          <path id="path132" d="M72.774,176.773h-.8v-23.61h.8Z" transform="translate(-37.703 -153.163)" fill="#fff" fill-rule="evenodd"/>
        </g>
      </g>
    </g>
  </g>
</svg>
