<svg xmlns="http://www.w3.org/2000/svg" width="34.297" height="27.867" viewBox="0 0 34.297 27.867">
  <path id="Path_1489" data-name="Path 1489" d="M34.3,51.3a14.659,14.659,0,0,1-4.051,1.11,6.992,6.992,0,0,0,3.093-3.886,14.052,14.052,0,0,1-4.459,1.7,7.031,7.031,0,0,0-12.163,4.808,7.24,7.24,0,0,0,.163,1.6A19.9,19.9,0,0,1,2.388,49.282a7.033,7.033,0,0,0,2.161,9.4,6.944,6.944,0,0,1-3.177-.866v.077A7.064,7.064,0,0,0,7.005,64.8a7.018,7.018,0,0,1-1.843.232,6.217,6.217,0,0,1-1.331-.12,7.1,7.1,0,0,0,6.57,4.9,14.128,14.128,0,0,1-8.718,3A13.172,13.172,0,0,1,0,72.711a19.8,19.8,0,0,0,10.786,3.155c12.939,0,20.012-10.718,20.012-20.008,0-.311-.011-.611-.026-.909A14.027,14.027,0,0,0,34.3,51.3Z" transform="translate(0 -48)" fill="#fff" opacity="0.8"/>
</svg>
